<svg width="74" height="35" viewBox="0 0 74 35" fill="none" xmlns="http://www.w3.org/2000/svg">
<path d="M11.7205 12.4798C5.24745 12.4798 0 17.8297 0 24.4293H23.441C23.441 17.8297 18.1935 12.4798 11.7205 12.4798Z" fill="white"/>
<path d="M57.6832 18.4546C48.6717 18.4546 41.3665 25.8622 41.3665 35H74C74 25.8622 66.6947 18.4546 57.6832 18.4546Z" fill="white"/>
<path d="M33.0933 10.1818C19.3857 10.1818 8.27344 21.2933 8.27344 35H57.9132C57.9132 21.2933 46.801 10.1818 33.0933 10.1818Z" fill="white"/>
<path d="M64.1121 0C58.6511 0 54.2241 4.55856 54.2241 10.1818H74C74 4.55856 69.573 0 64.1121 0Z" fill="white"/>
</svg>
